<?xml version="1.0" encoding="UTF-8"?>
<svg id="Layer_1" data-name="Layer 1" xmlns="http://www.w3.org/2000/svg" viewBox="0 0 135.94 227.92">
  <defs>
    <style>
      .cls-1 {
        fill: #3fcfd3;
      }

      .cls-2 {
        fill: #21c2d0;
      }
    </style>
  </defs>
  <polygon class="cls-1" points="20.15 67.7 0 47.55 0 87.85 20.15 67.7"/>
  <polygon class="cls-1" points="115.79 67.7 135.94 87.84 135.94 47.55 115.79 67.7"/>
  <polygon class="cls-2" points="92.43 184.22 92.24 184.22 92.24 184.41 92.43 184.22"/>
  <g>
    <polygon class="cls-2" points="115.79 113.96 135.94 134.1 135.94 93.82 115.79 113.96"/>
    <polygon class="cls-2" points="135.94 92.11 135.94 91.92 135.75 91.92 135.94 92.11"/>
  </g>
  <polygon class="cls-1" points="48.09 0 67.91 19.82 87.74 0 48.09 0"/>
  <g>
    <polygon class="cls-1" points="115.77 160.11 135.94 180.28 135.94 139.94 115.77 160.11"/>
    <polygon class="cls-1" points="135.94 138.28 135.94 138.1 135.76 138.1 135.94 138.28"/>
  </g>
  <g>
    <polygon class="cls-1" points="68.04 207.84 47.95 227.92 88.12 227.92 68.04 207.84"/>
    <polygon class="cls-1" points="46.12 226.35 66.33 206.14 46.12 185.92 46.12 226.35"/>
    <polygon class="cls-1" points="46.26 184.22 46.12 184.22 46.12 184.35 46.26 184.22"/>
    <polygon class="cls-1" points="89.82 184.22 89.82 184.22 89.82 184.22 89.82 184.22"/>
  </g>
  <g>
    <polygon class="cls-2" points="42.07 184.22 0 184.22 21.04 205.25 42.07 184.22"/>
    <polygon class="cls-2" points="43.7 184.29 43.7 184.22 43.63 184.22 43.7 184.29"/>
    <polygon class="cls-2" points="22.74 206.95 43.7 227.92 43.7 185.99 22.74 206.95"/>
  </g>
  <path class="cls-1" d="M87.1,134.85l-19.19-19.19-19.96,19.96h38.94c.07-.26.1-.53.21-.77Z"/>
  <path class="cls-1" d="M40.16,45.85H1.7l20.15,20.15,19.04-19.05c-.28-.34-.56-.69-.74-1.1Z"/>
  <path class="cls-2" d="M40.52,41.89l-19.35-19.35L0,43.7h39.9c.07-.67.28-1.26.62-1.81Z"/>
  <path class="cls-2" d="M43.7,39.83V0l-20.84,20.84,19.4,19.4c.44-.22.92-.34,1.44-.41Z"/>
  <path class="cls-1" d="M46.98,40.76l19.24-19.23L46.12,1.43v38.74c.31.15.59.36.86.58Z"/>
  <path class="cls-1" d="M89.82,40.07V1.32l-20.21,20.2,19.21,19.21c.31-.25.62-.51.99-.67Z"/>
  <path class="cls-2" d="M93.81,40.43l19.43-19.43L92.24,0v39.86c.57.09,1.09.28,1.57.57Z"/>
  <path class="cls-2" d="M95.87,43.7h40.06l-21-21-19.48,19.48c.23.47.36.97.42,1.52Z"/>
  <path class="cls-1" d="M95.62,45.85c-.16.38-.42.69-.67,1.01l19.14,19.14,20.15-20.15h-38.62Z"/>
  <path class="cls-1" d="M87.41,42.72l-19.49-19.49-19.54,19.53c.1.3.16.62.19.94h38.64c.04-.34.09-.67.2-.98Z"/>
  <path class="cls-1" d="M92.9,87.19l19.49-19.49-19.42-19.42c-.23.08-.48.11-.73.15v38.63c.23.04.45.06.66.13Z"/>
  <path class="cls-1" d="M95.57,89.55h38.67l-20.15-20.15-19.17,19.17c.25.3.5.61.66.98Z"/>
  <path class="cls-2" d="M95.84,91.92c-.08.57-.25,1.09-.52,1.57l18.77,18.77,20.34-20.34h-38.59Z"/>
  <path class="cls-1" d="M87.24,91.92h-38.12c-.13.37-.32.69-.54,1.01l19.33,19.33,19.5-19.49c-.09-.27-.13-.56-.17-.85Z"/>
  <path class="cls-1" d="M46.77,94.53c-.2.09-.44.11-.66.16v39.36l20.09-20.09-19.44-19.43Z"/>
  <path class="cls-2" d="M43.07,94.44l-20.27,20.27,20.9,20.91v-40.96c-.22-.07-.43-.12-.63-.22Z"/>
  <path class="cls-2" d="M40.85,91.92H0l21.1,21.09,20.21-20.21c-.18-.28-.34-.56-.45-.89Z"/>
  <path class="cls-1" d="M41.04,88.59l-19.19-19.19L1.7,89.55h39.06c.08-.33.14-.66.28-.96Z"/>
  <path class="cls-1" d="M43.7,86.34v-37.88c-.26-.03-.51-.08-.75-.15l-19.39,19.39,19.12,19.12c.32-.2.65-.37,1.02-.49Z"/>
  <path class="cls-1" d="M89.82,132.52v-37.11c-.37-.16-.67-.42-.98-.66l-19.22,19.22,19.1,19.1c.35-.23.7-.41,1.1-.54Z"/>
  <path class="cls-2" d="M93.37,132.97l19.02-19.01-18.79-18.78c-.42.23-.87.35-1.36.44v36.88c.41.11.78.27,1.13.49Z"/>
  <path class="cls-2" d="M95.31,135.62h38.74l-19.96-19.96-19.07,19.07c.14.28.21.58.29.89Z"/>
  <path class="cls-1" d="M95.24,138.1c-.12.36-.31.66-.51.97l19.34,19.34,20.31-20.31h-39.13Z"/>
  <path class="cls-1" d="M93.04,179.43l19.32-19.32-19.43-19.43c-.22.1-.46.13-.7.19v38.29c.28.08.55.14.81.27Z"/>
  <path class="cls-1" d="M95.21,181.8h38.84l-19.99-19.99-19.27,19.27c.15.24.31.46.41.72Z"/>
  <path class="cls-2" d="M95.35,184.22c-.09.43-.2.83-.4,1.2l19.9,19.89,21.09-21.1h-40.59Z"/>
  <path class="cls-2" d="M93.26,187.14c-.32.18-.66.31-1.02.41v40.37l20.9-20.91-19.88-19.88Z"/>
  <path class="cls-1" d="M88.83,187.05l-19.09,19.08,20.08,20.08v-38.7c-.36-.11-.68-.27-1-.47Z"/>
  <path class="cls-1" d="M86.86,184.22h-39.04l20.22,20.22,19.14-19.14c-.17-.33-.24-.7-.32-1.08Z"/>
</svg>