<?xml version="1.0" encoding="UTF-8"?>
<svg id="Layer_1" data-name="Layer 1" xmlns="http://www.w3.org/2000/svg" viewBox="0 0 400 400">
  <defs>
    <style>
      .cls-1 {
        fill: #3fcfd3;
      }

      .cls-2 {
        fill: #21c2d0;
      }

      .cls-3 {
        fill: #2d5f6c;
      }
    </style>
  </defs>
  <rect class="cls-3" x="0" y="-.09" width="400.09" height="400.09"/>
  <polygon class="cls-1" points="151.81 149.28 131.66 129.13 131.66 169.42 151.81 149.28"/>
  <polygon class="cls-1" points="247.45 149.28 267.6 169.42 267.6 129.13 247.45 149.28"/>
  <polygon class="cls-2" points="224.09 265.8 223.9 265.8 223.9 265.99 224.09 265.8"/>
  <g>
    <polygon class="cls-2" points="247.45 195.54 267.6 215.68 267.6 175.39 247.45 195.54"/>
    <polygon class="cls-2" points="267.6 173.69 267.6 173.5 267.41 173.5 267.6 173.69"/>
  </g>
  <polygon class="cls-1" points="179.75 81.58 199.57 101.4 219.4 81.58 179.75 81.58"/>
  <g>
    <polygon class="cls-1" points="247.43 241.69 267.6 261.86 267.6 221.52 247.43 241.69"/>
    <polygon class="cls-1" points="267.6 219.86 267.6 219.68 267.42 219.68 267.6 219.86"/>
  </g>
  <g>
    <polygon class="cls-1" points="199.7 289.42 179.61 309.5 219.78 309.5 199.7 289.42"/>
    <polygon class="cls-1" points="177.78 307.93 197.99 287.72 177.78 267.5 177.78 307.93"/>
    <polygon class="cls-1" points="177.92 265.8 177.78 265.8 177.78 265.93 177.92 265.8"/>
    <polygon class="cls-1" points="221.48 265.8 221.48 265.8 221.48 265.8 221.48 265.8"/>
  </g>
  <g>
    <polygon class="cls-2" points="173.73 265.8 131.66 265.8 152.7 286.83 173.73 265.8"/>
    <polygon class="cls-2" points="175.36 265.87 175.36 265.8 175.29 265.8 175.36 265.87"/>
    <polygon class="cls-2" points="154.4 288.53 175.36 309.5 175.36 267.57 154.4 288.53"/>
  </g>
  <path class="cls-1" d="M218.76,216.43l-19.19-19.19-19.96,19.96h38.94c.07-.26.1-.53.21-.77Z"/>
  <path class="cls-1" d="M171.82,127.43h-38.46l20.15,20.15,19.04-19.05c-.28-.34-.56-.69-.74-1.1Z"/>
  <path class="cls-2" d="M172.18,123.47l-19.35-19.35-21.16,21.16h39.9c.07-.67.28-1.26.62-1.81Z"/>
  <path class="cls-2" d="M175.36,121.41v-39.83l-20.84,20.84,19.4,19.4c.44-.22.92-.34,1.44-.41Z"/>
  <path class="cls-1" d="M178.64,122.34l19.24-19.23-20.09-20.09v38.74c.31.15.59.36.86.58Z"/>
  <path class="cls-1" d="M221.48,121.65v-38.75l-20.21,20.2,19.21,19.21c.31-.25.62-.51.99-.67Z"/>
  <path class="cls-2" d="M225.47,122.01l19.43-19.43-21-21v39.86c.57.09,1.09.28,1.57.57Z"/>
  <path class="cls-2" d="M227.53,125.28h40.06l-21-21-19.48,19.48c.23.47.36.97.42,1.52Z"/>
  <path class="cls-1" d="M227.28,127.43c-.16.38-.42.69-.67,1.01l19.14,19.14,20.15-20.15h-38.62Z"/>
  <path class="cls-1" d="M219.07,124.3l-19.49-19.49-19.54,19.53c.1.3.16.62.19.94h38.64c.04-.34.09-.67.2-.98Z"/>
  <path class="cls-1" d="M224.56,168.76l19.49-19.49-19.42-19.42c-.23.08-.48.11-.73.15v38.63c.23.04.45.06.66.13Z"/>
  <path class="cls-1" d="M227.23,171.13h38.67l-20.15-20.15-19.17,19.17c.25.3.5.61.66.98Z"/>
  <path class="cls-2" d="M227.5,173.5c-.08.57-.25,1.09-.52,1.57l18.77,18.77,20.34-20.34h-38.59Z"/>
  <path class="cls-1" d="M218.9,173.5h-38.12c-.13.37-.32.69-.54,1.01l19.33,19.33,19.5-19.49c-.09-.27-.13-.56-.17-.85Z"/>
  <path class="cls-1" d="M178.44,176.1c-.2.09-.44.11-.66.16v39.36l20.09-20.09-19.44-19.43Z"/>
  <path class="cls-2" d="M174.73,176.02l-20.27,20.27,20.9,20.91v-40.96c-.22-.07-.43-.12-.63-.22Z"/>
  <path class="cls-2" d="M172.51,173.5h-40.85l21.1,21.09,20.21-20.21c-.18-.28-.34-.56-.45-.89Z"/>
  <path class="cls-1" d="M172.7,170.17l-19.19-19.19-20.15,20.15h39.06c.08-.33.14-.66.28-.96Z"/>
  <path class="cls-1" d="M175.36,167.92v-37.88c-.26-.03-.51-.08-.75-.15l-19.39,19.39,19.12,19.12c.32-.2.65-.37,1.02-.49Z"/>
  <path class="cls-1" d="M221.48,214.1v-37.11c-.37-.16-.67-.42-.98-.66l-19.22,19.22,19.1,19.1c.35-.23.7-.41,1.1-.54Z"/>
  <path class="cls-2" d="M225.03,214.55l19.02-19.01-18.79-18.78c-.42.23-.87.35-1.36.44v36.88c.41.11.78.27,1.13.49Z"/>
  <path class="cls-2" d="M226.97,217.2h38.74l-19.96-19.96-19.07,19.07c.14.28.21.58.29.89Z"/>
  <path class="cls-1" d="M226.9,219.68c-.12.36-.31.66-.51.97l19.34,19.34,20.31-20.31h-39.13Z"/>
  <path class="cls-1" d="M224.7,261.01l19.32-19.32-19.43-19.43c-.22.1-.46.13-.7.19v38.29c.28.08.55.14.81.27Z"/>
  <path class="cls-1" d="M226.87,263.38h38.84l-19.99-19.99-19.27,19.27c.15.24.31.46.41.72Z"/>
  <path class="cls-2" d="M227.01,265.8c-.09.43-.2.83-.4,1.2l19.9,19.89,21.09-21.1h-40.59Z"/>
  <path class="cls-2" d="M224.92,268.71c-.32.18-.66.31-1.02.41v40.37l20.9-20.91-19.88-19.88Z"/>
  <path class="cls-1" d="M220.49,268.63l-19.09,19.08,20.08,20.08v-38.7c-.36-.11-.68-.27-1-.47Z"/>
  <path class="cls-1" d="M218.52,265.8h-39.04l20.22,20.22,19.14-19.14c-.17-.33-.24-.7-.32-1.08Z"/>
</svg>